<?xml version="1.0" standalone="yes"?>

<svg version="1.1" viewBox="0.0 0.0 960.0 540.0" fill="none" stroke="none" stroke-linecap="square" stroke-miterlimit="10" xmlns="http://www.w3.org/2000/svg" xmlns:xlink="http://www.w3.org/1999/xlink"><clipPath id="g484b925ea_01.0"><path d="m0 0l960.0 0l0 540.0l-960.0 0l0 -540.0z" clip-rule="nonzero"></path></clipPath><g clip-path="url(#g484b925ea_01.0)"><path fill="#ffffff" d="m0 0l960.0 0l0 540.0l-960.0 0z" fill-rule="nonzero"></path><path fill="#000000" fill-opacity="0.0" d="m553.5827 404.4672l384.0 0l0 48.0l-384.0 0z" fill-rule="nonzero"></path><path fill="#000000" fill-opacity="0.0" d="m25.690289 206.87401l903.2126 2.0157623" fill-rule="nonzero"></path><path stroke="#000000" stroke-width="2.0" stroke-linejoin="round" stroke-linecap="butt" d="m25.690289 206.87401l903.2126 2.0157623" fill-rule="nonzero"></path><path fill="#000000" fill-opacity="0.0" d="m14.496063 105.220215l816.0 0l0 82.39369l-816.0 0z" fill-rule="nonzero"></path><path fill="#4a86e8" d="m44.41794 152.28766q0.40625 0.78125 0.75 1.609375q0.359375 0.828125 0.703125 1.65625q0.328125 -0.859375 0.6875 -1.703125q0.359375 -0.84375 0.765625 -1.609375l10.28125 -19.21875q0.1875 -0.359375 0.390625 -0.578125q0.203125 -0.21875 0.453125 -0.3125q0.25 -0.09375 0.5625 -0.109375q0.3125 -0.03125 0.75 -0.03125l4.875 0l0 34.703125l-5.6875 0l0 -22.421875q0 -0.625 0.03125 -1.359375q0.03125 -0.75 0.109375 -1.515625l-10.484375 19.6875q-0.359375 0.671875 -0.9375 1.046875q-0.578125 0.359375 -1.34375 0.359375l-0.890625 0q-0.765625 0 -1.34375 -0.359375q-0.578125 -0.375 -0.9375 -1.046875l-10.625 -19.765625q0.09375 0.796875 0.125 1.5625q0.03125 0.75 0.03125 1.390625l0 22.421875l-5.6875 0l0 -34.703125l4.875 0q0.4375 0 0.75 0.03125q0.3125 0.015625 0.5625 0.109375q0.25 0.09375 0.46875 0.3125q0.21875 0.21875 0.40625 0.578125l10.359375 19.265625l0 0zm46.186737 14.40625l-2.671875 0q-0.84375 0 -1.328125 -0.25q-0.46875 -0.25 -0.703125 -1.015625l-0.53125 -1.765625q-0.9375 0.84375 -1.84375 1.484375q-0.890625 0.640625 -1.859375 1.078125q-0.953125 0.421875 -2.03125 0.640625q-1.078125 0.21875 -2.40625 0.21875q-1.5625 0 -2.890625 -0.421875q-1.3125 -0.421875 -2.265625 -1.265625q-0.9375 -0.84375 -1.46875 -2.078125q-0.53125 -1.25 -0.53125 -2.90625q0 -1.40625 0.734375 -2.75q0.734375 -1.359375 2.4375 -2.453125q1.703125 -1.09375 4.53125 -1.8125q2.84375 -0.71875 7.046875 -0.8125l0 -1.4375q0 -2.484375 -1.046875 -3.671875q-1.046875 -1.1875 -3.046875 -1.1875q-1.4375 0 -2.40625 0.34375q-0.953125 0.328125 -1.65625 0.75q-0.703125 0.421875 -1.3125 0.765625q-0.59375 0.328125 -1.3125 0.328125q-0.609375 0 -1.046875 -0.3125q-0.421875 -0.3125 -0.6875 -0.765625l-1.078125 -1.890625q4.25 -3.890625 10.25 -3.890625q2.15625 0 3.84375 0.71875q1.703125 0.703125 2.875 1.96875q1.171875 1.25 1.78125 3.0q0.625 1.75 0.625 3.84375l0 15.546875zm-11.53125 -3.703125q0.921875 0 1.6875 -0.15625q0.765625 -0.171875 1.453125 -0.5q0.6875 -0.34375 1.3125 -0.828125q0.640625 -0.5 1.296875 -1.171875l0 -4.15625q-2.59375 0.125 -4.34375 0.453125q-1.734375 0.3125 -2.796875 0.828125q-1.046875 0.5 -1.5 1.171875q-0.4375 0.671875 -0.4375 1.46875q0 1.546875 0.921875 2.21875q0.921875 0.671875 2.40625 0.671875zm34.65918 -15.71875q-0.265625 0.34375 -0.515625 0.53125q-0.25 0.1875 -0.734375 0.1875q-0.453125 0 -0.890625 -0.265625q-0.421875 -0.28125 -1.03125 -0.625q-0.59375 -0.34375 -1.421875 -0.625q-0.828125 -0.28125 -2.046875 -0.28125q-1.5625 0 -2.75 0.5625q-1.171875 0.5625 -1.953125 1.625q-0.765625 1.0625 -1.15625 2.5625q-0.390625 1.5 -0.390625 3.390625q0 1.96875 0.421875 3.515625q0.421875 1.53125 1.21875 2.578125q0.796875 1.03125 1.921875 1.578125q1.125 0.53125 2.546875 0.53125q1.40625 0 2.28125 -0.34375q0.875 -0.34375 1.46875 -0.765625q0.609375 -0.421875 1.046875 -0.765625q0.453125 -0.359375 1.0 -0.359375q0.71875 0 1.078125 0.5625l1.703125 2.15625q-0.984375 1.15625 -2.140625 1.9375q-1.140625 0.78125 -2.375 1.25q-1.234375 0.453125 -2.5625 0.640625q-1.3125 0.203125 -2.609375 0.203125q-2.28125 0 -4.296875 -0.84375q-2.015625 -0.859375 -3.515625 -2.484375q-1.5 -1.640625 -2.375 -4.0q-0.875 -2.375 -0.875 -5.390625q0 -2.71875 0.78125 -5.03125q0.78125 -2.3125 2.28125 -4.0q1.515625 -1.703125 3.75 -2.65625q2.234375 -0.96875 5.140625 -0.96875q2.75 0 4.828125 0.890625q2.078125 0.890625 3.734375 2.546875l-1.5625 2.15625zm5.59906 19.421875l0 -35.65625l5.921875 0l0 13.703125q1.4375 -1.375 3.15625 -2.21875q1.734375 -0.84375 4.0625 -0.84375q2.03125 0 3.578125 0.6875q1.5625 0.6875 2.609375 1.921875q1.046875 1.234375 1.578125 2.953125q0.546875 1.71875 0.546875 3.78125l0 15.671875l-5.921875 0l0 -15.671875q0 -2.25 -1.046875 -3.484375q-1.046875 -1.25 -3.140625 -1.25q-1.53125 0 -2.875 0.703125q-1.34375 0.6875 -2.546875 1.890625l0 17.8125l-5.921875 0zm33.600418 -24.625l0 24.625l-5.9375 0l0 -24.625l5.9375 0zm0.890625 -7.171875q0 0.765625 -0.3125 1.4375q-0.3125 0.671875 -0.828125 1.171875q-0.515625 0.5 -1.21875 0.8125q-0.703125 0.296875 -1.484375 0.296875q-0.765625 0 -1.453125 -0.296875q-0.6875 -0.3125 -1.1875 -0.8125q-0.5 -0.5 -0.8125 -1.171875q-0.296875 -0.671875 -0.296875 -1.4375q0 -0.796875 0.296875 -1.484375q0.3125 -0.703125 0.8125 -1.203125q0.5 -0.5 1.1875 -0.796875q0.6875 -0.3125 1.453125 -0.3125q0.78125 0 1.484375 0.3125q0.703125 0.296875 1.21875 0.796875q0.515625 0.5 0.828125 1.203125q0.3125 0.6875 0.3125 1.484375zm5.80484 31.796875l0 -24.625l3.625 0q1.140625 0 1.5 1.078125l0.421875 1.953125q0.734375 -0.78125 1.5625 -1.390625q0.828125 -0.625 1.75 -1.078125q0.921875 -0.46875 1.984375 -0.703125q1.0625 -0.25 2.296875 -0.25q2.03125 0 3.578125 0.6875q1.5625 0.6875 2.609375 1.921875q1.046875 1.234375 1.578125 2.953125q0.546875 1.71875 0.546875 3.78125l0 15.671875l-5.921875 0l0 -15.671875q0 -2.25 -1.046875 -3.484375q-1.046875 -1.25 -3.140625 -1.25q-1.53125 0 -2.875 0.703125q-1.34375 0.6875 -2.546875 1.890625l0 17.8125l-5.921875 0zm37.459793 -25.015625q2.328125 0 4.28125 0.75q1.953125 0.75 3.375 2.1875q1.421875 1.421875 2.203125 3.5q0.796875 2.0625 0.796875 4.734375q0 0.671875 -0.0625 1.125q-0.0625 0.4375 -0.21875 0.6875q-0.15625 0.25 -0.421875 0.359375q-0.25 0.109375 -0.671875 0.109375l-15.203125 0q0.265625 3.78125 2.03125 5.5625q1.78125 1.78125 4.703125 1.78125q1.4375 0 2.484375 -0.328125q1.046875 -0.34375 1.828125 -0.75q0.78125 -0.421875 1.359375 -0.75q0.59375 -0.34375 1.140625 -0.34375q0.359375 0 0.625 0.15625q0.265625 0.140625 0.46875 0.40625l1.71875 2.15625q-0.984375 1.15625 -2.203125 1.9375q-1.21875 0.78125 -2.5625 1.25q-1.328125 0.453125 -2.71875 0.640625q-1.375 0.203125 -2.671875 0.203125q-2.5625 0 -4.78125 -0.84375q-2.203125 -0.859375 -3.828125 -2.53125q-1.625 -1.671875 -2.5625 -4.125q-0.9375 -2.453125 -0.9375 -5.703125q0 -2.515625 0.8125 -4.734375q0.8125 -2.21875 2.328125 -3.859375q1.53125 -1.65625 3.71875 -2.609375q2.203125 -0.96875 4.96875 -0.96875zm0.125 4.25q-2.59375 0 -4.0625 1.46875q-1.46875 1.46875 -1.875 4.15625l11.140625 0q0 -1.15625 -0.3125 -2.171875q-0.3125 -1.03125 -0.96875 -1.796875q-0.640625 -0.765625 -1.625 -1.203125q-0.984375 -0.453125 -2.296875 -0.453125zm30.935532 -14.890625l0 35.65625l-5.9375 0l0 -35.65625l5.9375 0zm16.86734 10.640625q2.328125 0 4.28125 0.75q1.953125 0.75 3.375 2.1875q1.421875 1.421875 2.203125 3.5q0.796875 2.0625 0.796875 4.734375q0 0.671875 -0.0625 1.125q-0.0625 0.4375 -0.21875 0.6875q-0.15625 0.25 -0.421875 0.359375q-0.25 0.109375 -0.671875 0.109375l-15.203125 0q0.265625 3.78125 2.03125 5.5625q1.78125 1.78125 4.703125 1.78125q1.4375 0 2.484375 -0.328125q1.046875 -0.34375 1.828125 -0.75q0.78125 -0.421875 1.359375 -0.75q0.59375 -0.34375 1.140625 -0.34375q0.359375 0 0.625 0.15625q0.265625 0.140625 0.46875 0.40625l1.71875 2.15625q-0.984375 1.15625 -2.203125 1.9375q-1.21875 0.78125 -2.5625 1.25q-1.328125 0.453125 -2.71875 0.640625q-1.375 0.203125 -2.671875 0.203125q-2.5625 0 -4.78125 -0.84375q-2.203125 -0.859375 -3.828125 -2.53125q-1.625 -1.671875 -2.5625 -4.125q-0.9375 -2.453125 -0.9375 -5.703125q0 -2.515625 0.8125 -4.734375q0.8125 -2.21875 2.328125 -3.859375q1.53125 -1.65625 3.71875 -2.609375q2.203125 -0.96875 4.96875 -0.96875zm0.125 4.25q-2.59375 0 -4.0625 1.46875q-1.46875 1.46875 -1.875 4.15625l11.140625 0q0 -1.15625 -0.3125 -2.171875q-0.3125 -1.03125 -0.96875 -1.796875q-0.640625 -0.765625 -1.625 -1.203125q-0.984375 -0.453125 -2.296875 -0.453125zm34.65593 20.765625l-2.671875 0q-0.84375 0 -1.328125 -0.25q-0.46875 -0.25 -0.703125 -1.015625l-0.53125 -1.765625q-0.9375 0.84375 -1.84375 1.484375q-0.890625 0.640625 -1.859375 1.078125q-0.953125 0.421875 -2.03125 0.640625q-1.078125 0.21875 -2.40625 0.21875q-1.5625 0 -2.890625 -0.421875q-1.3125 -0.421875 -2.265625 -1.265625q-0.9375 -0.84375 -1.46875 -2.078125q-0.53125 -1.25 -0.53125 -2.90625q0 -1.40625 0.734375 -2.75q0.734375 -1.359375 2.4375 -2.453125q1.703125 -1.09375 4.53125 -1.8125q2.84375 -0.71875 7.046875 -0.8125l0 -1.4375q0 -2.484375 -1.046875 -3.671875q-1.046875 -1.1875 -3.046875 -1.1875q-1.4375 0 -2.40625 0.34375q-0.953125 0.328125 -1.65625 0.75q-0.703125 0.421875 -1.3125 0.765625q-0.59375 0.328125 -1.3125 0.328125q-0.609375 0 -1.046875 -0.3125q-0.421875 -0.3125 -0.6875 -0.765625l-1.078125 -1.890625q4.25 -3.890625 10.25 -3.890625q2.15625 0 3.84375 0.71875q1.703125 0.703125 2.875 1.96875q1.171875 1.25 1.78125 3.0q0.625 1.75 0.625 3.84375l0 15.546875zm-11.53125 -3.703125q0.921875 0 1.6875 -0.15625q0.765625 -0.171875 1.453125 -0.5q0.6875 -0.34375 1.3125 -0.828125q0.640625 -0.5 1.296875 -1.171875l0 -4.15625q-2.59375 0.125 -4.34375 0.453125q-1.734375 0.3125 -2.796875 0.828125q-1.046875 0.5 -1.5 1.171875q-0.4375 0.671875 -0.4375 1.46875q0 1.546875 0.921875 2.21875q0.921875 0.671875 2.40625 0.671875zm17.362305 3.703125l0 -24.625l3.46875 0q0.921875 0 1.28125 0.34375q0.359375 0.328125 0.484375 1.140625l0.359375 2.984375q1.3125 -2.28125 3.078125 -3.59375q1.78125 -1.328125 4.0 -1.328125q1.8125 0 3.015625 0.84375l-0.765625 4.4375q-0.0625 0.421875 -0.3125 0.609375q-0.234375 0.171875 -0.640625 0.171875q-0.359375 0 -0.984375 -0.15625q-0.625 -0.171875 -1.65625 -0.171875q-1.859375 0 -3.171875 1.03125q-1.3125 1.015625 -2.234375 2.96875l0 15.34375l-5.921875 0zm19.60794 0l0 -24.625l3.625 0q1.140625 0 1.5 1.078125l0.421875 1.953125q0.734375 -0.78125 1.5625 -1.390625q0.828125 -0.625 1.75 -1.078125q0.921875 -0.46875 1.984375 -0.703125q1.0625 -0.25 2.296875 -0.25q2.03125 0 3.578125 0.6875q1.5625 0.6875 2.609375 1.921875q1.046875 1.234375 1.578125 2.953125q0.546875 1.71875 0.546875 3.78125l0 15.671875l-5.921875 0l0 -15.671875q0 -2.25 -1.046875 -3.484375q-1.046875 -1.25 -3.140625 -1.25q-1.53125 0 -2.875 0.703125q-1.34375 0.6875 -2.546875 1.890625l0 17.8125l-5.921875 0zm33.600403 -24.625l0 24.625l-5.9375 0l0 -24.625l5.9375 0zm0.890625 -7.171875q0 0.765625 -0.3125 1.4375q-0.3125 0.671875 -0.828125 1.171875q-0.515625 0.5 -1.21875 0.8125q-0.703125 0.296875 -1.484375 0.296875q-0.765625 0 -1.453125 -0.296875q-0.6875 -0.3125 -1.1875 -0.8125q-0.5 -0.5 -0.8125 -1.171875q-0.296875 -0.671875 -0.296875 -1.4375q0 -0.796875 0.296875 -1.484375q0.3125 -0.703125 0.8125 -1.203125q0.5 -0.5 1.1875 -0.796875q0.6875 -0.3125 1.453125 -0.3125q0.78125 0 1.484375 0.3125q0.703125 0.296875 1.21875 0.796875q0.515625 0.5 0.828125 1.203125q0.3125 0.6875 0.3125 1.484375zm5.80484 31.796875l0 -24.625l3.625 0q1.140625 0 1.5 1.078125l0.421875 1.953125q0.734375 -0.78125 1.5625 -1.390625q0.828125 -0.625 1.75 -1.078125q0.921875 -0.46875 1.984375 -0.703125q1.0625 -0.25 2.296875 -0.25q2.03125 0 3.578125 0.6875q1.5625 0.6875 2.609375 1.921875q1.046875 1.234375 1.578125 2.953125q0.546875 1.71875 0.546875 3.78125l0 15.671875l-5.921875 0l0 -15.671875q0 -2.25 -1.046875 -3.484375q-1.046875 -1.25 -3.140625 -1.25q-1.53125 0 -2.875 0.703125q-1.34375 0.6875 -2.546875 1.890625l0 17.8125l-5.921875 0zm35.80356 -25.0625q1.578125 0 2.96875 0.328125q1.40625 0.328125 2.546875 0.953125l7.078125 0l0 2.203125q0 0.546875 -0.28125 0.859375q-0.28125 0.3125 -0.984375 0.4375l-2.203125 0.40625q0.234375 0.625 0.359375 1.328125q0.140625 0.6875 0.140625 1.453125q0 1.828125 -0.734375 3.3125q-0.734375 1.46875 -2.015625 2.5q-1.28125 1.03125 -3.046875 1.59375q-1.765625 0.5625 -3.828125 0.5625q-1.390625 0 -2.71875 -0.265625q-1.140625 0.703125 -1.140625 1.5625q0 0.75 0.671875 1.09375q0.6875 0.34375 1.796875 0.5q1.125 0.140625 2.53125 0.171875q1.421875 0.03125 2.90625 0.15625q1.5 0.125 2.90625 0.421875q1.421875 0.296875 2.53125 0.953125q1.125 0.640625 1.796875 1.765625q0.6875 1.109375 0.6875 2.859375q0 1.640625 -0.796875 3.171875q-0.796875 1.53125 -2.328125 2.734375q-1.515625 1.203125 -3.734375 1.921875q-2.203125 0.734375 -5.03125 0.734375q-2.8125 0 -4.875 -0.546875q-2.0625 -0.53125 -3.421875 -1.4375q-1.359375 -0.890625 -2.03125 -2.0625q-0.671875 -1.171875 -0.671875 -2.453125q0 -1.71875 1.046875 -2.890625q1.0625 -1.1875 2.9375 -1.875q-0.90625 -0.515625 -1.46875 -1.34375q-0.546875 -0.84375 -0.546875 -2.1875q0 -0.5625 0.1875 -1.140625q0.203125 -0.59375 0.59375 -1.171875q0.390625 -0.578125 0.984375 -1.09375q0.609375 -0.515625 1.421875 -0.921875q-1.859375 -1.0 -2.9375 -2.671875q-1.0625 -1.6875 -1.0625 -3.953125q0 -1.8125 0.734375 -3.28125q0.734375 -1.484375 2.03125 -2.53125q1.3125 -1.046875 3.09375 -1.59375q1.796875 -0.5625 3.90625 -0.5625zm6.5 26.171875q0 -0.71875 -0.4375 -1.171875q-0.421875 -0.46875 -1.171875 -0.71875q-0.734375 -0.25 -1.734375 -0.359375q-1.0 -0.125 -2.125 -0.1875q-1.109375 -0.0625 -2.296875 -0.125q-1.1875 -0.0625 -2.28125 -0.203125q-1.015625 0.546875 -1.625 1.3125q-0.609375 0.75 -0.609375 1.734375q0 0.65625 0.3125 1.21875q0.328125 0.5625 1.03125 0.96875q0.71875 0.40625 1.84375 0.625q1.125 0.234375 2.765625 0.234375q1.65625 0 2.84375 -0.25q1.203125 -0.25 1.984375 -0.703125q0.78125 -0.4375 1.140625 -1.046875q0.359375 -0.609375 0.359375 -1.328125zm-6.5 -14.015625q1.109375 0 1.921875 -0.296875q0.8125 -0.3125 1.34375 -0.828125q0.546875 -0.53125 0.828125 -1.28125q0.28125 -0.75 0.28125 -1.625q0 -1.828125 -1.09375 -2.890625q-1.09375 -1.078125 -3.28125 -1.078125q-2.1875 0 -3.28125 1.078125q-1.09375 1.0625 -1.09375 2.890625q0 0.859375 0.28125 1.609375q0.28125 0.734375 0.8125 1.28125q0.546875 0.53125 1.375 0.84375q0.828125 0.296875 1.90625 0.296875z" fill-rule="nonzero"></path><path fill="#000000" fill-opacity="0.0" d="m247.3412 210.0l683.937 0l0 152.53543l-683.937 0z" fill-rule="nonzero"></path><path fill="#000000" d="m335.84335 265.4l0 -28.65625l9.140625 0q2.640625 0 4.546875 0.515625q1.90625 0.515625 3.140625 1.484375q1.234375 0.953125 1.8125 2.34375q0.59375 1.390625 0.59375 3.125q0 1.0625 -0.328125 2.046875q-0.328125 0.984375 -1.0 1.828125q-0.671875 0.828125 -1.6875 1.5q-1.0 0.65625 -2.359375 1.078125q3.140625 0.609375 4.734375 2.25q1.609375 1.640625 1.609375 4.328125q0 1.8125 -0.671875 3.3125q-0.671875 1.5 -1.96875 2.578125q-1.28125 1.078125 -3.15625 1.671875q-1.875 0.59375 -4.265625 0.59375l-10.140625 0zm3.875 -13.0625l0 9.984375l6.203125 0q1.65625 0 2.84375 -0.375q1.1875 -0.390625 1.953125 -1.078125q0.78125 -0.6875 1.140625 -1.640625q0.359375 -0.953125 0.359375 -2.09375q0 -2.21875 -1.578125 -3.5q-1.5625 -1.296875 -4.734375 -1.296875l-6.1875 0zm0 -2.75l5.125 0q1.640625 0 2.828125 -0.359375q1.203125 -0.375 1.984375 -1.0q0.796875 -0.640625 1.171875 -1.546875q0.390625 -0.921875 0.390625 -2.0q0 -2.515625 -1.53125 -3.6875q-1.515625 -1.1875 -4.703125 -1.1875l-5.265625 0l0 9.78125zm21.442474 15.8125l0 -20.265625l2.03125 0q0.59375 0 0.8125 0.234375q0.21875 0.21875 0.296875 0.75l0.234375 3.15625q1.046875 -2.109375 2.578125 -3.296875q1.53125 -1.203125 3.578125 -1.203125q0.84375 0 1.515625 0.203125q0.6875 0.1875 1.265625 0.515625l-0.453125 2.671875q-0.140625 0.5 -0.625 0.5q-0.28125 0 -0.859375 -0.1875q-0.578125 -0.203125 -1.609375 -0.203125q-1.875 0 -3.125 1.09375q-1.25 1.078125 -2.078125 3.125l0 12.90625l-3.5625 0zm20.07309 -20.265625l0 20.265625l-3.5625 0l0 -20.265625l3.5625 0zm0.8125 -6.359375q0 0.53125 -0.21875 0.984375q-0.203125 0.4375 -0.5625 0.796875q-0.34375 0.34375 -0.8125 0.546875q-0.453125 0.203125 -0.96875 0.203125q-0.53125 0 -0.984375 -0.203125q-0.4375 -0.203125 -0.796875 -0.546875q-0.34375 -0.359375 -0.546875 -0.796875q-0.203125 -0.453125 -0.203125 -0.984375q0 -0.515625 0.203125 -0.984375q0.203125 -0.46875 0.546875 -0.8125q0.359375 -0.359375 0.796875 -0.5625q0.453125 -0.203125 0.984375 -0.203125q0.515625 0 0.96875 0.203125q0.46875 0.203125 0.8125 0.5625q0.359375 0.34375 0.5625 0.8125q0.21875 0.46875 0.21875 0.984375zm20.349365 26.625l-1.578125 0q-0.515625 0 -0.84375 -0.15625q-0.3125 -0.15625 -0.421875 -0.6875l-0.390625 -1.875q-0.796875 0.71875 -1.5625 1.296875q-0.765625 0.5625 -1.609375 0.953125q-0.828125 0.390625 -1.78125 0.578125q-0.953125 0.203125 -2.109375 0.203125q-1.1875 0 -2.21875 -0.328125q-1.015625 -0.328125 -1.78125 -0.984375q-0.765625 -0.65625 -1.21875 -1.671875q-0.4375 -1.015625 -0.4375 -2.390625q0 -1.203125 0.65625 -2.3125q0.65625 -1.109375 2.125 -1.96875q1.46875 -0.859375 3.84375 -1.40625q2.390625 -0.546875 5.828125 -0.625l0 -1.578125q0 -2.359375 -1.015625 -3.5625q-1.0 -1.21875 -2.984375 -1.21875q-1.296875 0 -2.1875 0.328125q-0.890625 0.328125 -1.546875 0.734375q-0.640625 0.40625 -1.109375 0.75q-0.46875 0.328125 -0.9375 0.328125q-0.359375 0 -0.625 -0.1875q-0.265625 -0.203125 -0.4375 -0.484375l-0.640625 -1.140625q1.6875 -1.609375 3.625 -2.40625q1.9375 -0.8125 4.296875 -0.8125q1.703125 0 3.015625 0.5625q1.328125 0.5625 2.21875 1.5625q0.90625 1.0 1.359375 2.421875q0.46875 1.421875 0.46875 3.125l0 12.953125zm-9.234375 -2.1875q0.9375 0 1.71875 -0.1875q0.78125 -0.1875 1.46875 -0.53125q0.6875 -0.359375 1.3125 -0.859375q0.640625 -0.5 1.234375 -1.140625l0 -4.21875q-2.453125 0.078125 -4.171875 0.390625q-1.71875 0.3125 -2.8125 0.8125q-1.078125 0.5 -1.5625 1.1875q-0.484375 0.671875 -0.484375 1.515625q0 0.796875 0.25 1.375q0.265625 0.578125 0.703125 0.953125q0.4375 0.375 1.03125 0.546875q0.609375 0.15625 1.3125 0.15625zm14.639374 2.1875l0 -20.265625l2.125 0q0.75 0 0.953125 0.75l0.28125 2.203125q1.3125 -1.46875 2.9375 -2.359375q1.640625 -0.90625 3.78125 -0.90625q1.65625 0 2.921875 0.546875q1.28125 0.546875 2.125 1.5625q0.859375 1.015625 1.296875 2.4375q0.4375 1.40625 0.4375 3.125l0 12.90625l-3.5625 0l0 -12.90625q0 -2.296875 -1.046875 -3.5625q-1.046875 -1.265625 -3.21875 -1.265625q-1.578125 0 -2.953125 0.765625q-1.359375 0.75 -2.515625 2.046875l0 14.921875l-3.5625 0zm50.725586 -5.921875q0.3125 0 0.578125 0.265625l1.515625 1.65625q-1.765625 2.046875 -4.28125 3.1875q-2.5 1.125 -6.046875 1.125q-3.09375 0 -5.625 -1.0625q-2.515625 -1.0625 -4.296875 -3.0q-1.765625 -1.9375 -2.75 -4.625q-0.984375 -2.703125 -0.984375 -5.9375q0 -3.25 1.046875 -5.9375q1.0625 -2.703125 2.953125 -4.640625q1.90625 -1.953125 4.546875 -3.015625q2.65625 -1.078125 5.859375 -1.078125q3.15625 0 5.4375 0.984375q2.296875 0.984375 4.078125 2.65625l-1.265625 1.78125q-0.140625 0.203125 -0.328125 0.34375q-0.171875 0.125 -0.5 0.125q-0.265625 0 -0.5625 -0.1875q-0.28125 -0.203125 -0.6875 -0.484375q-0.390625 -0.28125 -0.9375 -0.59375q-0.53125 -0.328125 -1.28125 -0.59375q-0.734375 -0.28125 -1.71875 -0.46875q-0.984375 -0.203125 -2.25 -0.203125q-2.3125 0 -4.21875 0.796875q-1.90625 0.78125 -3.296875 2.25q-1.375 1.453125 -2.140625 3.5625q-0.765625 2.09375 -0.765625 4.703125q0 2.671875 0.765625 4.78125q0.765625 2.09375 2.09375 3.546875q1.328125 1.4375 3.140625 2.203125q1.828125 0.765625 3.9375 0.765625q1.28125 0 2.296875 -0.140625q1.015625 -0.15625 1.890625 -0.46875q0.875 -0.328125 1.625 -0.8125q0.75 -0.5 1.5 -1.1875q0.34375 -0.296875 0.671875 -0.296875zm21.509338 5.921875l-1.578125 0q-0.515625 0 -0.84375 -0.15625q-0.3125 -0.15625 -0.421875 -0.6875l-0.390625 -1.875q-0.796875 0.71875 -1.5625 1.296875q-0.765625 0.5625 -1.609375 0.953125q-0.828125 0.390625 -1.78125 0.578125q-0.953125 0.203125 -2.109375 0.203125q-1.1875 0 -2.21875 -0.328125q-1.015625 -0.328125 -1.78125 -0.984375q-0.765625 -0.65625 -1.21875 -1.671875q-0.4375 -1.015625 -0.4375 -2.390625q0 -1.203125 0.65625 -2.3125q0.65625 -1.109375 2.125 -1.96875q1.46875 -0.859375 3.84375 -1.40625q2.390625 -0.546875 5.828125 -0.625l0 -1.578125q0 -2.359375 -1.015625 -3.5625q-1.0 -1.21875 -2.984375 -1.21875q-1.296875 0 -2.1875 0.328125q-0.890625 0.328125 -1.546875 0.734375q-0.640625 0.40625 -1.109375 0.75q-0.46875 0.328125 -0.9375 0.328125q-0.359375 0 -0.625 -0.1875q-0.265625 -0.203125 -0.4375 -0.484375l-0.640625 -1.140625q1.6875 -1.609375 3.625 -2.40625q1.9375 -0.8125 4.296875 -0.8125q1.703125 0 3.015625 0.5625q1.328125 0.5625 2.21875 1.5625q0.90625 1.0 1.359375 2.421875q0.46875 1.421875 0.46875 3.125l0 12.953125zm-9.234375 -2.1875q0.9375 0 1.71875 -0.1875q0.78125 -0.1875 1.46875 -0.53125q0.6875 -0.359375 1.3125 -0.859375q0.640625 -0.5 1.234375 -1.140625l0 -4.21875q-2.453125 0.078125 -4.171875 0.390625q-1.71875 0.3125 -2.8125 0.8125q-1.078125 0.5 -1.5625 1.1875q-0.484375 0.671875 -0.484375 1.515625q0 0.796875 0.25 1.375q0.265625 0.578125 0.703125 0.953125q0.4375 0.375 1.03125 0.546875q0.609375 0.15625 1.3125 0.15625zm15.436249 2.1875l0 -17.21875l-2.234375 -0.265625q-0.421875 -0.09375 -0.703125 -0.296875q-0.265625 -0.21875 -0.265625 -0.625l0 -1.453125l3.203125 0l0 -1.953125q0 -1.75 0.484375 -3.09375q0.5 -1.359375 1.40625 -2.28125q0.90625 -0.9375 2.1875 -1.40625q1.28125 -0.484375 2.890625 -0.484375q1.359375 0 2.515625 0.390625l-0.078125 1.78125q-0.03125 0.40625 -0.359375 0.484375q-0.3125 0.078125 -0.890625 0.078125l-0.609375 0q-0.921875 0 -1.671875 0.25q-0.75 0.234375 -1.296875 0.78125q-0.53125 0.53125 -0.828125 1.421875q-0.28125 0.875 -0.28125 2.171875l0 1.859375l5.859375 0l0 2.578125l-5.75 0l0 17.28125l-3.578125 0zm13.47998 0l0 -17.21875l-2.234375 -0.265625q-0.421875 -0.09375 -0.703125 -0.296875q-0.265625 -0.21875 -0.265625 -0.625l0 -1.453125l3.203125 0l0 -1.953125q0 -1.75 0.484375 -3.09375q0.5 -1.359375 1.40625 -2.28125q0.90625 -0.9375 2.1875 -1.40625q1.28125 -0.484375 2.890625 -0.484375q1.359375 0 2.515625 0.390625l-0.078125 1.78125q-0.03125 0.40625 -0.359375 0.484375q-0.3125 0.078125 -0.890625 0.078125l-0.609375 0q-0.921875 0 -1.671875 0.25q-0.75 0.234375 -1.296875 0.78125q-0.53125 0.53125 -0.828125 1.421875q-0.28125 0.875 -0.28125 2.171875l0 1.859375l5.859375 0l0 2.578125l-5.75 0l0 17.28125l-3.578125 0zm20.8862 -20.578125q2.21875 0 4.0 0.75q1.796875 0.734375 3.046875 2.09375q1.25 1.359375 1.921875 3.296875q0.671875 1.921875 0.671875 4.296875q0 2.40625 -0.671875 4.328125q-0.671875 1.90625 -1.921875 3.265625q-1.25 1.359375 -3.046875 2.09375q-1.78125 0.734375 -4.0 0.734375q-2.21875 0 -4.015625 -0.734375q-1.796875 -0.734375 -3.0625 -2.09375q-1.25 -1.359375 -1.9374695 -3.265625q-0.671875 -1.921875 -0.671875 -4.328125q0 -2.375 0.671875 -4.296875q0.6874695 -1.9375 1.9374695 -3.296875q1.265625 -1.359375 3.0625 -2.09375q1.796875 -0.75 4.015625 -0.75zm0 18.078125q3.0 0 4.46875 -2.0q1.484375 -2.015625 1.484375 -5.625q0 -3.609375 -1.484375 -5.625q-1.46875 -2.03125 -4.46875 -2.03125q-1.53125 0 -2.65625 0.53125q-1.109375 0.515625 -1.859375 1.5q-0.75 0.96875 -1.125 2.40625q-0.359375 1.421875 -0.359375 3.21875q0 1.8125 0.359375 3.234375q0.375 1.40625 1.125 2.375q0.75 0.96875 1.859375 1.5q1.125 0.515625 2.65625 0.515625zm12.98999 0.046875q0 -0.46875 0.171875 -0.875q0.171875 -0.40625 0.484375 -0.71875q0.3125 -0.3125 0.75 -0.484375q0.4375 -0.1875 0.953125 -0.1875q0.609375 0 1.078125 0.21875q0.46875 0.21875 0.78125 0.609375q0.3125 0.390625 0.46875 0.90625q0.15625 0.5 0.15625 1.109375q0 0.890625 -0.265625 1.859375q-0.25 0.96875 -0.734375 1.921875q-0.484375 0.953125 -1.203125 1.84375q-0.703125 0.90625 -1.59375 1.671875l-0.609375 -0.578125q-0.25 -0.25 -0.25 -0.5625q0 -0.265625 0.28125 -0.546875q0.203125 -0.21875 0.5 -0.59375q0.3125 -0.359375 0.625 -0.84375q0.328125 -0.484375 0.59375 -1.0625q0.28125 -0.578125 0.390625 -1.234375l-0.25 0q-0.515625 0 -0.9375 -0.171875q-0.421875 -0.1875 -0.734375 -0.515625q-0.3125 -0.328125 -0.484375 -0.78125q-0.171875 -0.453125 -0.171875 -0.984375zm28.590576 -7.453125q0 2.40625 -0.59375 4.3125q-0.59375 1.890625 -1.75 3.203125q-1.140625 1.3125 -2.828125 2.015625q-1.671875 0.6875 -3.859375 0.6875q-1.9375 0 -4.03125 -0.546875q0.03125 -0.578125 0.09375 -1.140625q0.0625 -0.578125 0.125 -1.140625q0.03125 -0.34375 0.234375 -0.546875q0.21875 -0.21875 0.640625 -0.21875q0.359375 0 0.953125 0.1875q0.609375 0.171875 1.609375 0.171875q1.328125 0 2.34375 -0.390625q1.03125 -0.40625 1.734375 -1.25q0.71875 -0.84375 1.09375 -2.140625q0.375 -1.3125 0.375 -3.109375l0 -18.84375l3.859375 0l0 18.75zm14.431885 -10.671875q1.828125 0 3.359375 0.609375q1.546875 0.609375 2.65625 1.765625q1.125 1.140625 1.75 2.828125q0.640625 1.6875 0.640625 3.859375q0 0.828125 -0.1875 1.109375q-0.171875 0.28125 -0.671875 0.28125l-13.484375 0q0.046875 1.921875 0.515625 3.34375q0.484375 1.421875 1.328125 2.375q0.84375 0.953125 2.0 1.421875q1.15625 0.46875 2.59375 0.46875q1.34375 0 2.3125 -0.3125q0.96875 -0.3125 1.671875 -0.671875q0.703125 -0.359375 1.171875 -0.671875q0.46875 -0.3125 0.8125 -0.3125q0.4375 0 0.671875 0.34375l1.0 1.296875q-0.65625 0.796875 -1.578125 1.390625q-0.921875 0.59375 -1.96875 0.984375q-1.046875 0.375 -2.171875 0.5625q-1.125 0.1875 -2.21875 0.1875q-2.09375 0 -3.875 -0.703125q-1.765625 -0.71875 -3.0625 -2.078125q-1.28125 -1.375 -2.0 -3.390625q-0.71875 -2.03125 -0.71875 -4.65625q0 -2.109375 0.640625 -3.953125q0.65625 -1.84375 1.875 -3.1875q1.21875 -1.359375 2.96875 -2.125q1.765625 -0.765625 3.96875 -0.765625zm0.078125 2.625q-2.578125 0 -4.0625 1.484375q-1.46875 1.484375 -1.828125 4.125l11.015625 0q0 -1.234375 -0.34375 -2.265625q-0.34375 -1.03125 -1.0 -1.78125q-0.65625 -0.75 -1.609375 -1.15625q-0.953125 -0.40625 -2.171875 -0.40625zm13.663086 17.953125l0 -17.21875l-2.234375 -0.265625q-0.421875 -0.09375 -0.703125 -0.296875q-0.265625 -0.21875 -0.265625 -0.625l0 -1.453125l3.203125 0l0 -1.953125q0 -1.75 0.484375 -3.09375q0.5 -1.359375 1.40625 -2.28125q0.90625 -0.9375 2.1875 -1.40625q1.28125 -0.484375 2.890625 -0.484375q1.359375 0 2.515625 0.390625l-0.078125 1.78125q-0.03125 0.40625 -0.359375 0.484375q-0.3125 0.078125 -0.890625 0.078125l-0.609375 0q-0.921875 0 -1.671875 0.25q-0.75 0.234375 -1.296875 0.78125q-0.53125 0.53125 -0.828125 1.421875q-0.28125 0.875 -0.28125 2.171875l0 1.859375l5.859375 0l0 2.578125l-5.75 0l0 17.28125l-3.578125 0zm13.47998 0l0 -17.21875l-2.234375 -0.265625q-0.421875 -0.09375 -0.703125 -0.296875q-0.265625 -0.21875 -0.265625 -0.625l0 -1.453125l3.203125 0l0 -1.953125q0 -1.75 0.484375 -3.09375q0.5 -1.359375 1.40625 -2.28125q0.90625 -0.9375 2.1875 -1.40625q1.28125 -0.484375 2.890625 -0.484375q1.359375 0 2.515625 0.390625l-0.078125 1.78125q-0.03125 0.40625 -0.359375 0.484375q-0.3125 0.078125 -0.890625 0.078125l-0.609375 0q-0.921875 0 -1.671875 0.25q-0.75 0.234375 -1.296875 0.78125q-0.53125 0.53125 -0.828125 1.421875q-0.28125 0.875 -0.28125 2.171875l0 1.859375l5.859375 0l0 2.578125l-5.75 0l0 17.28125l-3.578125 0zm24.840576 -3.265625l12.40625 0l0 3.265625l-16.28125 0l0 -28.65625l3.875 0l0 25.390625zm24.138123 -17.3125q1.828125 0 3.359375 0.609375q1.546875 0.609375 2.65625 1.765625q1.125 1.140625 1.75 2.828125q0.640625 1.6875 0.640625 3.859375q0 0.828125 -0.1875 1.109375q-0.171875 0.28125 -0.671875 0.28125l-13.484375 0q0.046875 1.921875 0.515625 3.34375q0.484375 1.421875 1.328125 2.375q0.84375 0.953125 2.0 1.421875q1.15625 0.46875 2.59375 0.46875q1.34375 0 2.3125 -0.3125q0.96875 -0.3125 1.671875 -0.671875q0.703125 -0.359375 1.171875 -0.671875q0.46875 -0.3125 0.8125 -0.3125q0.4375 0 0.671875 0.34375l1.0 1.296875q-0.65625 0.796875 -1.578125 1.390625q-0.921875 0.59375 -1.96875 0.984375q-1.046875 0.375 -2.171875 0.5625q-1.125 0.1875 -2.21875 0.1875q-2.09375 0 -3.875 -0.703125q-1.765625 -0.71875 -3.0625 -2.078125q-1.28125 -1.375 -2.0 -3.390625q-0.71875 -2.03125 -0.71875 -4.65625q0 -2.109375 0.640625 -3.953125q0.65625 -1.84375 1.875 -3.1875q1.21875 -1.359375 2.96875 -2.125q1.765625 -0.765625 3.96875 -0.765625zm0.078125 2.625q-2.578125 0 -4.0625 1.484375q-1.46875 1.484375 -1.828125 4.125l11.015625 0q0 -1.234375 -0.34375 -2.265625q-0.34375 -1.03125 -1.0 -1.78125q-0.65625 -0.75 -1.609375 -1.15625q-0.953125 -0.40625 -2.171875 -0.40625zm20.881836 -2.625q1.828125 0 3.359375 0.609375q1.546875 0.609375 2.65625 1.765625q1.125 1.140625 1.75 2.828125q0.640625 1.6875 0.640625 3.859375q0 0.828125 -0.1875 1.109375q-0.171875 0.28125 -0.671875 0.28125l-13.484375 0q0.046875 1.921875 0.515625 3.34375q0.484375 1.421875 1.328125 2.375q0.84375 0.953125 2.0 1.421875q1.15625 0.46875 2.59375 0.46875q1.34375 0 2.3125 -0.3125q0.96875 -0.3125 1.671875 -0.671875q0.703125 -0.359375 1.171875 -0.671875q0.46875 -0.3125 0.8125 -0.3125q0.4375 0 0.671875 0.34375l1.0 1.296875q-0.65625 0.796875 -1.578125 1.390625q-0.921875 0.59375 -1.96875 0.984375q-1.046875 0.375 -2.171875 0.5625q-1.125 0.1875 -2.21875 0.1875q-2.09375 0 -3.875 -0.703125q-1.765625 -0.71875 -3.0625 -2.078125q-1.28125 -1.375 -2.0 -3.390625q-0.71875 -2.03125 -0.71875 -4.65625q0 -2.109375 0.640625 -3.953125q0.65625 -1.84375 1.875 -3.1875q1.21875 -1.359375 2.96875 -2.125q1.765625 -0.765625 3.96875 -0.765625zm0.078125 2.625q-2.578125 0 -4.0625 1.484375q-1.46875 1.484375 -1.828125 4.125l11.015625 0q0 -1.234375 -0.34375 -2.265625q-0.34375 -1.03125 -1.0 -1.78125q-0.65625 -0.75 -1.609375 -1.15625q-0.953125 -0.40625 -2.171875 -0.40625zm16.569336 -11.5l0 17.328125l0.921875 0q0.390625 0 0.640625 -0.109375q0.265625 -0.109375 0.59375 -0.453125l6.40625 -6.859375q0.296875 -0.3125 0.59375 -0.515625q0.296875 -0.203125 0.796875 -0.203125l3.234375 0l-7.453125 7.953125q-0.28125 0.328125 -0.546875 0.59375q-0.265625 0.265625 -0.609375 0.453125q0.359375 0.25 0.640625 0.5625q0.296875 0.296875 0.5625 0.703125l7.90625 10.0l-3.1875 0q-0.4375 0 -0.75 -0.171875q-0.3125 -0.171875 -0.59375 -0.53125l-6.65625 -8.296875q-0.3125 -0.421875 -0.609375 -0.546875q-0.296875 -0.140625 -0.890625 -0.140625l-1.0 0l0 9.6875l-3.578125 0l0 -29.453125l3.578125 0zm16.20996 27.0q0 -0.46875 0.171875 -0.875q0.171875 -0.40625 0.484375 -0.71875q0.3125 -0.3125 0.75 -0.484375q0.4375 -0.1875 0.953125 -0.1875q0.609375 0 1.078125 0.21875q0.46875 0.21875 0.78125 0.609375q0.3125 0.390625 0.46875 0.90625q0.15625 0.5 0.15625 1.109375q0 0.890625 -0.265625 1.859375q-0.25 0.96875 -0.734375 1.921875q-0.484375 0.953125 -1.203125 1.84375q-0.703125 0.90625 -1.59375 1.671875l-0.609375 -0.578125q-0.25 -0.25 -0.25 -0.5625q0 -0.265625 0.28125 -0.546875q0.203125 -0.21875 0.5 -0.59375q0.3125 -0.359375 0.625 -0.84375q0.328125 -0.484375 0.59375 -1.0625q0.28125 -0.578125 0.390625 -1.234375l-0.25 0q-0.515625 0 -0.9375 -0.171875q-0.421875 -0.1875 -0.734375 -0.515625q-0.3125 -0.328125 -0.484375 -0.78125q-0.171875 -0.453125 -0.171875 -0.984375zm22.059326 -9.5l0 11.953125l-3.859375 0l0 -28.65625l8.109375 0q2.71875 0 4.6875 0.546875q1.984375 0.546875 3.265625 1.59375q1.296875 1.03125 1.921875 2.5q0.625 1.46875 0.625 3.296875q0 1.515625 -0.484375 2.84375q-0.484375 1.3125 -1.390625 2.375q-0.90625 1.046875 -2.21875 1.78125q-1.3125 0.734375 -2.96875 1.125q0.71875 0.40625 1.28125 1.21875l8.359375 11.375l-3.4375 0q-1.0625 0 -1.5625 -0.8125l-7.4375 -10.25q-0.34375 -0.484375 -0.75 -0.6875q-0.390625 -0.203125 -1.1875 -0.203125l-2.953125 0zm0 -2.828125l4.0625 0q1.703125 0 2.984375 -0.40625q1.296875 -0.40625 2.15625 -1.15625q0.875 -0.75 1.3125 -1.796875q0.453125 -1.046875 0.453125 -2.296875q0 -2.5625 -1.703125 -3.859375q-1.6875 -1.296875 -5.015625 -1.296875l-4.25 0l0 10.8125zm29.150635 -5.796875q2.218689 0 3.999939 0.75q1.796875 0.734375 3.046875 2.09375q1.25 1.359375 1.921875 3.296875q0.671875 1.921875 0.671875 4.296875q0 2.40625 -0.671875 4.328125q-0.671875 1.90625 -1.921875 3.265625q-1.25 1.359375 -3.046875 2.09375q-1.78125 0.734375 -3.999939 0.734375q-2.21875 0 -4.015625 -0.734375q-1.796875 -0.734375 -3.0625 -2.09375q-1.25 -1.359375 -1.9375 -3.265625q-0.671875 -1.921875 -0.671875 -4.328125q0 -2.375 0.671875 -4.296875q0.6875 -1.9375 1.9375 -3.296875q1.265625 -1.359375 3.0625 -2.09375q1.796875 -0.75 4.015625 -0.75zm0 18.078125q2.999939 0 4.468689 -2.0q1.484375 -2.015625 1.484375 -5.625q0 -3.609375 -1.484375 -5.625q-1.46875 -2.03125 -4.468689 -2.03125q-1.53125 0 -2.65625 0.53125q-1.109375 0.515625 -1.859375 1.5q-0.75 0.96875 -1.125 2.40625q-0.359375 1.421875 -0.359375 3.21875q0 1.8125 0.359375 3.234375q0.375 1.40625 1.125 2.375q0.75 0.96875 1.859375 1.5q1.125 0.515625 2.65625 0.515625zm20.849304 -18.09375q1.328125 0 2.46875 0.296875q1.15625 0.28125 2.09375 0.84375l5.5 0l0 1.3125q0 0.65625 -0.84375 0.84375l-2.296875 0.3125q0.6875 1.296875 0.6875 2.90625q0 1.484375 -0.578125 2.6875q-0.5625 1.203125 -1.578125 2.078125q-1.0 0.859375 -2.390625 1.3125q-1.390625 0.453125 -3.0625 0.453125q-1.421875 0 -2.671875 -0.328125q-0.640625 0.390625 -0.96875 0.859375q-0.328125 0.453125 -0.328125 0.890625q0 0.71875 0.578125 1.09375q0.578125 0.375 1.53125 0.53125q0.96875 0.15625 2.1875 0.203125q1.21875 0.03125 2.484375 0.125q1.265625 0.09375 2.484375 0.3125q1.234375 0.21875 2.1875 0.71875q0.96875 0.5 1.546875 1.390625q0.578125 0.875 0.578125 2.265625q0 1.296875 -0.65625 2.515625q-0.640625 1.234375 -1.875 2.171875q-1.21875 0.953125 -2.984375 1.515625q-1.75 0.578125 -3.96875 0.578125q-2.21875 0 -3.890625 -0.4375q-1.671875 -0.4375 -2.78125 -1.1875q-1.09375 -0.734375 -1.640625 -1.703125q-0.546875 -0.96875 -0.546875 -2.03125q0 -1.5 0.953125 -2.546875q0.953125 -1.046875 2.609375 -1.671875q-0.859375 -0.40625 -1.375 -1.0625q-0.5 -0.671875 -0.5 -1.796875q0 -0.4375 0.15625 -0.90625q0.15625 -0.46875 0.484375 -0.921875q0.328125 -0.46875 0.8125 -0.890625q0.484375 -0.421875 1.125 -0.734375q-1.5 -0.84375 -2.359375 -2.234375q-0.84375 -1.390625 -0.84375 -3.25q0 -1.484375 0.5625 -2.6875q0.578125 -1.21875 1.59375 -2.0625q1.015625 -0.859375 2.421875 -1.3125q1.421875 -0.453125 3.09375 -0.453125zm6.328125 21.6875q0 -0.75 -0.421875 -1.203125q-0.421875 -0.46875 -1.140625 -0.71875q-0.71875 -0.25 -1.65625 -0.359375q-0.9375 -0.125 -1.984375 -0.171875q-1.046875 -0.0625 -2.125 -0.125q-1.078125 -0.0625 -2.046875 -0.21875q-1.140625 0.546875 -1.859375 1.328125q-0.703125 0.78125 -0.703125 1.859375q0 0.671875 0.34375 1.265625q0.34375 0.59375 1.0625 1.015625q0.734375 0.4375 1.8125 0.6875q1.09375 0.25 2.578125 0.25q1.4375 0 2.578125 -0.265625q1.140625 -0.25 1.921875 -0.734375q0.796875 -0.484375 1.21875 -1.140625q0.421875 -0.65625 0.421875 -1.46875zm-6.328125 -11.0q1.078125 0 1.90625 -0.296875q0.84375 -0.296875 1.390625 -0.828125q0.5625 -0.546875 0.84375 -1.296875q0.28125 -0.75 0.28125 -1.65625q0 -1.859375 -1.125 -2.953125q-1.125 -1.109375 -3.296875 -1.109375q-2.140625 0 -3.265625 1.109375q-1.125 1.09375 -1.125 2.953125q0 0.90625 0.28125 1.65625q0.296875 0.75 0.859375 1.296875q0.5625 0.53125 1.375 0.828125q0.828125 0.296875 1.875 0.296875zm21.643127 -10.671875q1.828125 0 3.359375 0.609375q1.546875 0.609375 2.65625 1.765625q1.125 1.140625 1.75 2.828125q0.640625 1.6875 0.640625 3.859375q0 0.828125 -0.1875 1.109375q-0.171875 0.28125 -0.671875 0.28125l-13.484375 0q0.046875 1.921875 0.515625 3.34375q0.484375 1.421875 1.328125 2.375q0.84375 0.953125 2.0 1.421875q1.15625 0.46875 2.59375 0.46875q1.34375 0 2.3125 -0.3125q0.96875 -0.3125 1.671875 -0.671875q0.703125 -0.359375 1.171875 -0.671875q0.46875 -0.3125 0.8125 -0.3125q0.4375 0 0.671875 0.34375l1.0 1.296875q-0.65625 0.796875 -1.578125 1.390625q-0.921875 0.59375 -1.96875 0.984375q-1.046875 0.375 -2.171875 0.5625q-1.125 0.1875 -2.21875 0.1875q-2.09375 0 -3.875 -0.703125q-1.765625 -0.71875 -3.0625 -2.078125q-1.28125 -1.375 -2.0 -3.390625q-0.71875 -2.03125 -0.71875 -4.65625q0 -2.109375 0.640625 -3.953125q0.65625 -1.84375 1.875 -3.1875q1.21875 -1.359375 2.96875 -2.125q1.765625 -0.765625 3.96875 -0.765625zm0.078125 2.625q-2.578125 0 -4.0625 1.484375q-1.46875 1.484375 -1.828125 4.125l11.015625 0q0 -1.234375 -0.34375 -2.265625q-0.34375 -1.03125 -1.0 -1.78125q-0.65625 -0.75 -1.609375 -1.15625q-0.953125 -0.40625 -2.171875 -0.40625zm12.866211 17.953125l0 -20.265625l2.03125 0q0.59375 0 0.8125 0.234375q0.21875 0.21875 0.296875 0.75l0.234375 3.15625q1.046875 -2.109375 2.578125 -3.296875q1.53125 -1.203125 3.578125 -1.203125q0.84375 0 1.515625 0.203125q0.6875 0.1875 1.265625 0.515625l-0.453125 2.671875q-0.140625 0.5 -0.625 0.5q-0.28125 0 -0.859375 -0.1875q-0.578125 -0.203125 -1.609375 -0.203125q-1.875 0 -3.125 1.09375q-1.25 1.078125 -2.078125 3.125l0 12.90625l-3.5625 0zm28.652466 -10.71875l0 10.71875l-3.859375 0l0 -28.65625l8.46875 0q2.71875 0 4.71875 0.625q2.015625 0.625 3.328125 1.796875q1.328125 1.15625 1.96875 2.796875q0.65625 1.640625 0.65625 3.65625q0 2.0 -0.703125 3.671875q-0.6875 1.65625 -2.046875 2.859375q-1.34375 1.1875 -3.34375 1.859375q-2.0 0.671875 -4.578125 0.671875l-4.609375 0zm0 -3.078125l4.609375 0q1.65625 0 2.921875 -0.4375q1.28125 -0.453125 2.140625 -1.234375q0.859375 -0.796875 1.296875 -1.890625q0.4375 -1.09375 0.4375 -2.421875q0 -2.734375 -1.6875 -4.265625q-1.6875 -1.546875 -5.109375 -1.546875l-4.609375 0l0 11.796875zm27.643066 -6.78125q1.828125 0 3.359375 0.609375q1.546875 0.609375 2.65625 1.765625q1.125 1.140625 1.75 2.828125q0.640625 1.6875 0.640625 3.859375q0 0.828125 -0.1875 1.109375q-0.171875 0.28125 -0.671875 0.28125l-13.484375 0q0.046875 1.921875 0.515625 3.34375q0.484375 1.421875 1.328125 2.375q0.84375 0.953125 2.0 1.421875q1.15625 0.46875 2.59375 0.46875q1.34375 0 2.3125 -0.3125q0.96875 -0.3125 1.671875 -0.671875q0.703125 -0.359375 1.171875 -0.671875q0.46875 -0.3125 0.8125 -0.3125q0.4375 0 0.671875 0.34375l1.0 1.296875q-0.65625 0.796875 -1.578125 1.390625q-0.921875 0.59375 -1.96875 0.984375q-1.046875 0.375 -2.171875 0.5625q-1.125 0.1875 -2.21875 0.1875q-2.09375 0 -3.875 -0.703125q-1.765625 -0.71875 -3.0625 -2.078125q-1.28125 -1.375 -2.0 -3.390625q-0.71875 -2.03125 -0.71875 -4.65625q0 -2.109375 0.640625 -3.953125q0.65625 -1.84375 1.875 -3.1875q1.21875 -1.359375 2.96875 -2.125q1.765625 -0.765625 3.96875 -0.765625zm0.078125 2.625q-2.578125 0 -4.0625 1.484375q-1.46875 1.484375 -1.828125 4.125l11.015625 0q0 -1.234375 -0.34375 -2.265625q-0.34375 -1.03125 -1.0 -1.78125q-0.65625 -0.75 -1.609375 -1.15625q-0.953125 -0.40625 -2.171875 -0.40625zm12.866211 17.953125l0 -20.265625l2.125 0q0.75 0 0.953125 0.75l0.28125 2.203125q1.3125 -1.46875 2.9375 -2.359375q1.640625 -0.90625 3.78125 -0.90625q1.65625 0 2.921875 0.546875q1.28125 0.546875 2.125 1.5625q0.859375 1.015625 1.296875 2.4375q0.4375 1.40625 0.4375 3.125l0 12.90625l-3.5625 0l0 -12.90625q0 -2.296875 -1.046875 -3.5625q-1.046875 -1.265625 -3.21875 -1.265625q-1.578125 0 -2.953125 0.765625q-1.359375 0.75 -2.515625 2.046875l0 14.921875l-3.5625 0zm29.05249 -20.59375q1.328125 0 2.46875 0.296875q1.15625 0.28125 2.09375 0.84375l5.5 0l0 1.3125q0 0.65625 -0.84375 0.84375l-2.296875 0.3125q0.6875 1.296875 0.6875 2.90625q0 1.484375 -0.578125 2.6875q-0.5625 1.203125 -1.578125 2.078125q-1.0 0.859375 -2.390625 1.3125q-1.390625 0.453125 -3.0625 0.453125q-1.421875 0 -2.671875 -0.328125q-0.640625 0.390625 -0.96875 0.859375q-0.328125 0.453125 -0.328125 0.890625q0 0.71875 0.578125 1.09375q0.578125 0.375 1.53125 0.53125q0.96875 0.15625 2.1875 0.203125q1.21875 0.03125 2.484375 0.125q1.265625 0.09375 2.484375 0.3125q1.234375 0.21875 2.1875 0.71875q0.96875 0.5 1.546875 1.390625q0.578125 0.875 0.578125 2.265625q0 1.296875 -0.65625 2.515625q-0.640625 1.234375 -1.875 2.171875q-1.21875 0.953125 -2.984375 1.515625q-1.75 0.578125 -3.96875 0.578125q-2.21875 0 -3.890625 -0.4375q-1.671875 -0.4375 -2.78125 -1.1875q-1.09375 -0.734375 -1.640625 -1.703125q-0.546875 -0.96875 -0.546875 -2.03125q0 -1.5 0.953125 -2.546875q0.953125 -1.046875 2.609375 -1.671875q-0.859375 -0.40625 -1.375 -1.0625q-0.5 -0.671875 -0.5 -1.796875q0 -0.4375 0.15625 -0.90625q0.15625 -0.46875 0.484375 -0.921875q0.328125 -0.46875 0.8125 -0.890625q0.484375 -0.421875 1.125 -0.734375q-1.5 -0.84375 -2.359375 -2.234375q-0.84375 -1.390625 -0.84375 -3.25q0 -1.484375 0.5625 -2.6875q0.578125 -1.21875 1.59375 -2.0625q1.015625 -0.859375 2.421875 -1.3125q1.421875 -0.453125 3.09375 -0.453125zm6.328125 21.6875q0 -0.75 -0.421875 -1.203125q-0.421875 -0.46875 -1.140625 -0.71875q-0.71875 -0.25 -1.65625 -0.359375q-0.9375 -0.125 -1.984375 -0.171875q-1.046875 -0.0625 -2.125 -0.125q-1.078125 -0.0625 -2.046875 -0.21875q-1.140625 0.546875 -1.859375 1.328125q-0.703125 0.78125 -0.703125 1.859375q0 0.671875 0.34375 1.265625q0.34375 0.59375 1.0625 1.015625q0.734375 0.4375 1.8125 0.6875q1.09375 0.25 2.578125 0.25q1.4375 0 2.578125 -0.265625q1.140625 -0.25 1.921875 -0.734375q0.796875 -0.484375 1.21875 -1.140625q0.421875 -0.65625 0.421875 -1.46875zm-6.328125 -11.0q1.078125 0 1.90625 -0.296875q0.84375 -0.296875 1.390625 -0.828125q0.5625 -0.546875 0.84375 -1.296875q0.28125 -0.75 0.28125 -1.65625q0 -1.859375 -1.125 -2.953125q-1.125 -1.109375 -3.296875 -1.109375q-2.140625 0 -3.265625 1.109375q-1.125 1.09375 -1.125 2.953125q0 0.90625 0.28125 1.65625q0.296875 0.75 0.859375 1.296875q0.5625 0.53125 1.375 0.828125q0.828125 0.296875 1.875 0.296875z" fill-rule="nonzero"></path><path fill="#666666" d="m842.4659 306.08438q-1.046875 0 -1.71875 -0.5q-0.65625 -0.515625 -0.828125 -1.5625q-0.78125 1.09375 -1.703125 1.578125q-0.921875 0.46875 -1.96875 0.46875q-0.8125 0 -1.40625 -0.28125q-0.59375 -0.28125 -1.0 -0.765625q-0.390625 -0.5 -0.59375 -1.171875q-0.1875 -0.671875 -0.1875 -1.453125q0 -1.15625 0.4375 -2.3125q0.4375 -1.171875 1.296875 -2.109375q0.875 -0.9375 2.15625 -1.53125q1.296875 -0.59375 2.984375 -0.59375q0.90625 0 1.578125 0.140625q0.6875 0.140625 1.296875 0.40625l-1.25 4.875q-0.265625 1.015625 -0.265625 1.671875q0 0.484375 0.125 0.8125q0.125 0.3125 0.328125 0.5q0.203125 0.171875 0.484375 0.25q0.28125 0.0625 0.59375 0.0625q0.65625 0 1.25 -0.375q0.59375 -0.390625 1.046875 -1.078125q0.453125 -0.6875 0.71875 -1.640625q0.265625 -0.96875 0.265625 -2.15625q0 -1.859375 -0.609375 -3.265625q-0.59375 -1.40625 -1.640625 -2.34375q-1.046875 -0.9375 -2.46875 -1.390625q-1.421875 -0.46875 -3.078125 -0.46875q-1.8125 0 -3.390625 0.6875q-1.578125 0.6875 -2.75 1.90625q-1.171875 1.203125 -1.859375 2.875q-0.671875 1.65625 -0.671875 3.609375q0 2.296875 0.71875 4.03125q0.734375 1.734375 1.984375 2.921875q1.25 1.171875 2.921875 1.765625q1.6875 0.59375 3.609375 0.59375q2.0625 0 3.625 -0.453125q1.578125 -0.4375 2.734375 -1.140625q0.203125 -0.109375 0.359375 -0.109375q0.28125 0 0.421875 0.3125l0.328125 0.890625q-1.4375 0.984375 -3.28125 1.53125q-1.84375 0.546875 -4.1875 0.546875q-2.328125 0 -4.34375 -0.75q-2.0 -0.734375 -3.484375 -2.125q-1.484375 -1.390625 -2.328125 -3.421875q-0.84375 -2.03125 -0.84375 -4.59375q0 -1.46875 0.375 -2.828125q0.375 -1.359375 1.046875 -2.546875q0.671875 -1.1875 1.609375 -2.15625q0.953125 -0.984375 2.109375 -1.671875q1.171875 -0.703125 2.5 -1.078125q1.34375 -0.390625 2.796875 -0.390625q1.25 0 2.4375 0.265625q1.1875 0.265625 2.234375 0.796875q1.0625 0.53125 1.953125 1.3125q0.890625 0.765625 1.53125 1.78125q0.65625 1.0 1.0 2.234375q0.359375 1.234375 0.359375 2.671875q0 1.46875 -0.40625 2.703125q-0.40625 1.234375 -1.140625 2.140625q-0.71875 0.90625 -1.703125 1.421875q-0.96875 0.5 -2.109375 0.5zm-5.75 -1.609375q0.421875 0 0.84375 -0.140625q0.421875 -0.140625 0.8125 -0.46875q0.40625 -0.34375 0.734375 -0.921875q0.34375 -0.578125 0.5625 -1.453125l1.03125 -3.984375q-0.53125 -0.125 -1.140625 -0.125q-1.015625 0 -1.859375 0.421875q-0.84375 0.421875 -1.453125 1.125q-0.609375 0.6875 -0.953125 1.578125q-0.34375 0.890625 -0.34375 1.8125q0 0.96875 0.4375 1.5625q0.453125 0.59375 1.328125 0.59375zm13.958252 4.125l0 -19.890625l2.421875 0l0 8.1875q0.84375 -0.984375 1.9375 -1.578125q1.109375 -0.609375 2.53125 -0.609375q1.1875 0 2.140625 0.453125q0.96875 0.4375 1.640625 1.328125q0.671875 0.875 1.03125 2.1875q0.375 1.296875 0.375 3.0q0 1.515625 -0.40625 2.8125q-0.40625 1.296875 -1.171875 2.25q-0.765625 0.953125 -1.875 1.5q-1.09375 0.546875 -2.46875 0.546875q-1.3125 0 -2.25 -0.515625q-0.921875 -0.515625 -1.609375 -1.421875l-0.125 1.234375q-0.09375 0.515625 -0.609375 0.515625l-1.5625 0zm6.109375 -11.96875q-1.171875 0 -2.0625 0.546875q-0.875 0.53125 -1.625 1.515625l0 6.609375q0.640625 0.890625 1.4375 1.265625q0.796875 0.359375 1.765625 0.359375q1.90625 0 2.9375 -1.359375q1.03125 -1.375 1.03125 -3.890625q0 -1.34375 -0.234375 -2.296875q-0.234375 -0.953125 -0.6875 -1.5625q-0.4375 -0.625 -1.09375 -0.90625q-0.640625 -0.28125 -1.46875 -0.28125zm18.041382 0.71875q-0.109375 0.15625 -0.21875 0.234375q-0.109375 0.078125 -0.3125 0.078125q-0.1875 0 -0.4375 -0.15625q-0.234375 -0.171875 -0.59375 -0.375q-0.359375 -0.203125 -0.890625 -0.375q-0.515625 -0.171875 -1.265625 -0.171875q-1.0 0 -1.78125 0.359375q-0.765625 0.359375 -1.28125 1.03125q-0.515625 0.671875 -0.78125 1.640625q-0.265625 0.953125 -0.265625 2.140625q0 1.234375 0.28125 2.203125q0.28125 0.96875 0.796875 1.625q0.515625 0.65625 1.25 1.0q0.734375 0.34375 1.65625 0.34375q0.875 0 1.4375 -0.203125q0.578125 -0.21875 0.953125 -0.46875q0.375 -0.265625 0.609375 -0.46875q0.25 -0.21875 0.5 -0.21875q0.3125 0 0.453125 0.234375l0.671875 0.875q-0.890625 1.09375 -2.234375 1.609375q-1.328125 0.5 -2.8125 0.5q-1.28125 0 -2.390625 -0.46875q-1.09375 -0.46875 -1.90625 -1.359375q-0.796875 -0.90625 -1.265625 -2.21875q-0.46875 -1.3125 -0.46875 -2.984375q0 -1.53125 0.421875 -2.828125q0.421875 -1.296875 1.234375 -2.234375q0.828125 -0.9375 2.03125 -1.453125q1.203125 -0.53125 2.75 -0.53125q1.4375 0 2.53125 0.46875q1.109375 0.46875 1.96875 1.3125l-0.640625 0.859375zm13.167175 11.25l-1.0625 0q-0.359375 0 -0.578125 -0.109375q-0.203125 -0.109375 -0.28125 -0.453125l-0.265625 -1.28125q-0.546875 0.5 -1.0625 0.890625q-0.5 0.375 -1.078125 0.640625q-0.5625 0.265625 -1.203125 0.390625q-0.640625 0.140625 -1.421875 0.140625q-0.796875 0 -1.5 -0.21875q-0.6875 -0.234375 -1.203125 -0.671875q-0.515625 -0.453125 -0.828125 -1.125q-0.296875 -0.6875 -0.296875 -1.625q0 -0.796875 0.453125 -1.546875q0.453125 -0.75 1.4375 -1.328125q1.0 -0.59375 2.59375 -0.953125q1.609375 -0.375 3.9375 -0.4375l0 -1.0625q0 -1.59375 -0.6875 -2.40625q-0.6875 -0.8125 -2.015625 -0.8125q-0.875 0 -1.484375 0.21875q-0.59375 0.21875 -1.03125 0.5q-0.4375 0.28125 -0.765625 0.5q-0.3125 0.21875 -0.625 0.21875q-0.234375 0 -0.421875 -0.125q-0.1875 -0.125 -0.296875 -0.3125l-0.421875 -0.78125q1.125 -1.09375 2.4375 -1.625q1.3125 -0.546875 2.90625 -0.546875q1.140625 0 2.03125 0.390625q0.890625 0.375 1.5 1.046875q0.609375 0.671875 0.921875 1.640625q0.3125 0.953125 0.3125 2.09375l0 8.75zm-6.234375 -1.46875q0.625 0 1.15625 -0.125q0.53125 -0.140625 0.984375 -0.375q0.46875 -0.234375 0.890625 -0.5625q0.4375 -0.34375 0.84375 -0.78125l0 -2.84375q-1.671875 0.046875 -2.828125 0.265625q-1.15625 0.203125 -1.890625 0.546875q-0.71875 0.328125 -1.0625 0.796875q-0.328125 0.453125 -0.328125 1.015625q0 0.546875 0.171875 0.9375q0.1875 0.390625 0.484375 0.640625q0.296875 0.25 0.703125 0.375q0.40625 0.109375 0.875 0.109375zm10.249023 1.46875l0 -11.625l-1.515625 -0.171875q-0.28125 -0.0625 -0.46875 -0.203125q-0.1875 -0.15625 -0.1875 -0.421875l0 -0.984375l2.171875 0l0 -1.328125q0 -1.171875 0.328125 -2.078125q0.328125 -0.90625 0.9375 -1.53125q0.625 -0.640625 1.484375 -0.953125q0.859375 -0.328125 1.9375 -0.328125q0.921875 0 1.703125 0.265625l-0.046875 1.203125q-0.015625 0.265625 -0.234375 0.328125q-0.21875 0.046875 -0.609375 0.046875l-0.421875 0q-0.609375 0 -1.125 0.171875q-0.5 0.15625 -0.875 0.53125q-0.359375 0.359375 -0.5625 0.953125q-0.1875 0.59375 -0.1875 1.46875l0 1.25l3.953125 0l0 1.75l-3.875 0l0 11.65625l-2.40625 0zm8.983154 0l0 -11.625l-1.515625 -0.171875q-0.28125 -0.0625 -0.46875 -0.203125q-0.1875 -0.15625 -0.1875 -0.421875l0 -0.984375l2.171875 0l0 -1.328125q0 -1.171875 0.328125 -2.078125q0.328125 -0.90625 0.9375 -1.53125q0.625 -0.640625 1.484375 -0.953125q0.859375 -0.328125 1.9375 -0.328125q0.921875 0 1.703125 0.265625l-0.046875 1.203125q-0.015625 0.265625 -0.234375 0.328125q-0.21875 0.046875 -0.609375 0.046875l-0.421875 0q-0.609375 0 -1.125 0.171875q-0.5 0.15625 -0.875 0.53125q-0.359375 0.359375 -0.5625 0.953125q-0.1875 0.59375 -0.1875 1.46875l0 1.25l3.953125 0l0 1.75l-3.875 0l0 11.65625l-2.40625 0zm13.967529 -13.890625q1.5 0 2.703125 0.5q1.21875 0.5 2.0625 1.421875q0.84375 0.90625 1.296875 2.21875q0.453125 1.296875 0.453125 2.90625q0 1.625 -0.453125 2.921875q-0.453125 1.296875 -1.296875 2.21875q-0.84375 0.90625 -2.0625 1.40625q-1.203125 0.484375 -2.703125 0.484375q-1.5 0 -2.703125 -0.484375q-1.203125 -0.5 -2.0625 -1.40625q-0.84375 -0.921875 -1.3125 -2.21875q-0.453125 -1.296875 -0.453125 -2.921875q0 -1.609375 0.453125 -2.90625q0.46875 -1.3125 1.3125 -2.21875q0.859375 -0.921875 2.0625 -1.421875q1.203125 -0.5 2.703125 -0.5zm0 12.203125q2.03125 0 3.03125 -1.359375q1.0 -1.359375 1.0 -3.78125q0 -2.453125 -1.0 -3.8125q-1.0 -1.359375 -3.03125 -1.359375q-1.015625 0 -1.78125 0.359375q-0.75 0.34375 -1.265625 1.015625q-0.5 0.65625 -0.75 1.625q-0.25 0.953125 -0.25 2.171875q0 1.21875 0.25 2.171875q0.25 0.953125 0.75 1.609375q0.515625 0.65625 1.265625 1.015625q0.765625 0.34375 1.78125 0.34375z" fill-rule="nonzero"></path><path fill="#666666" d="m727.1028 334.92813l1.890625 0q0.296875 0 0.484375 0.15625q0.1875 0.140625 0.265625 0.34375l2.609375 8.796875q0.109375 0.484375 0.203125 0.9375q0.09375 0.453125 0.171875 0.90625q0.09375 -0.453125 0.234375 -0.90625q0.140625 -0.453125 0.28125 -0.9375l2.890625 -8.859375q0.0625 -0.203125 0.234375 -0.328125q0.171875 -0.140625 0.421875 -0.140625l1.046875 0q0.265625 0 0.4375 0.140625q0.1875 0.125 0.25 0.328125l2.828125 8.859375q0.140625 0.46875 0.25 0.9375q0.125 0.453125 0.234375 0.90625q0.0625 -0.453125 0.171875 -0.9375q0.109375 -0.484375 0.234375 -0.90625l2.671875 -8.796875q0.0625 -0.21875 0.25 -0.359375q0.1875 -0.140625 0.453125 -0.140625l1.796875 0l-4.421875 13.671875l-1.90625 0q-0.34375 0 -0.484375 -0.453125l-3.015625 -9.28125q-0.109375 -0.3125 -0.1875 -0.625q-0.0625 -0.3125 -0.125 -0.625q-0.078125 0.3125 -0.140625 0.640625q-0.0625 0.3125 -0.171875 0.625l-3.0625 9.265625q-0.15625 0.453125 -0.5625 0.453125l-1.8125 0l-4.421875 -13.671875zm20.41864 0l1.890625 0q0.296875 0 0.484375 0.15625q0.1875 0.140625 0.265625 0.34375l2.609375 8.796875q0.109375 0.484375 0.203125 0.9375q0.09375 0.453125 0.171875 0.90625q0.09375 -0.453125 0.234375 -0.90625q0.140625 -0.453125 0.28125 -0.9375l2.890625 -8.859375q0.0625 -0.203125 0.234375 -0.328125q0.171875 -0.140625 0.421875 -0.140625l1.046875 0q0.265625 0 0.4375 0.140625q0.1875 0.125 0.25 0.328125l2.828064 8.859375q0.140625 0.46875 0.25 0.9375q0.125 0.453125 0.234375 0.90625q0.0625 -0.453125 0.171875 -0.9375q0.109375 -0.484375 0.234375 -0.90625l2.671875 -8.796875q0.0625 -0.21875 0.25 -0.359375q0.1875 -0.140625 0.453125 -0.140625l1.796875 0l-4.421875 13.671875l-1.90625 0q-0.34375 0 -0.484375 -0.453125l-3.015564 -9.28125q-0.109375 -0.3125 -0.1875 -0.625q-0.0625 -0.3125 -0.125 -0.625q-0.078125 0.3125 -0.140625 0.640625q-0.0625 0.3125 -0.171875 0.625l-3.0625 9.265625q-0.15625 0.453125 -0.5625 0.453125l-1.8125 0l-4.421875 -13.671875zm20.41858 0l1.890625 0q0.296875 0 0.484375 0.15625q0.1875 0.140625 0.265625 0.34375l2.609375 8.796875q0.109375 0.484375 0.203125 0.9375q0.09375 0.453125 0.171875 0.90625q0.09375 -0.453125 0.234375 -0.90625q0.140625 -0.453125 0.28125 -0.9375l2.890625 -8.859375q0.0625 -0.203125 0.234375 -0.328125q0.171875 -0.140625 0.421875 -0.140625l1.046875 0q0.265625 0 0.4375 0.140625q0.1875 0.125 0.25 0.328125l2.828125 8.859375q0.140625 0.46875 0.25 0.9375q0.125 0.453125 0.234375 0.90625q0.0625 -0.453125 0.171875 -0.9375q0.109375 -0.484375 0.234375 -0.90625l2.671875 -8.796875q0.0625 -0.21875 0.25 -0.359375q0.1875 -0.140625 0.453125 -0.140625l1.796875 0l-4.421875 13.671875l-1.90625 0q-0.34375 0 -0.484375 -0.453125l-3.015625 -9.28125q-0.109375 -0.3125 -0.1875 -0.625q-0.0625 -0.3125 -0.125 -0.625q-0.078125 0.3125 -0.140625 0.640625q-0.0625 0.3125 -0.171875 0.625l-3.0625 9.265625q-0.15625 0.453125 -0.5625 0.453125l-1.8125 0l-4.421875 -13.671875zm21.41864 12.1875q0 -0.359375 0.125 -0.65625q0.125 -0.3125 0.34375 -0.546875q0.234375 -0.234375 0.546875 -0.359375q0.3125 -0.140625 0.65625 -0.140625q0.359375 0 0.65625 0.140625q0.3125 0.125 0.546875 0.359375q0.234375 0.234375 0.359375 0.546875q0.125 0.296875 0.125 0.65625q0 0.359375 -0.125 0.671875q-0.125 0.296875 -0.359375 0.53125q-0.234375 0.234375 -0.546875 0.359375q-0.296875 0.125 -0.65625 0.125q-0.34375 0 -0.65625 -0.125q-0.3125 -0.125 -0.546875 -0.359375q-0.21875 -0.234375 -0.34375 -0.53125q-0.125 -0.3125 -0.125 -0.671875zm6.510437 1.484375l0 -19.890625l2.421875 0l0 8.1875q0.84375 -0.984375 1.9375 -1.578125q1.109375 -0.609375 2.53125 -0.609375q1.1875 0 2.140625 0.453125q0.96875 0.4375 1.640625 1.328125q0.671875 0.875 1.03125 2.1875q0.375 1.296875 0.375 3.0q0 1.515625 -0.40625 2.8125q-0.40625 1.296875 -1.171875 2.25q-0.765625 0.953125 -1.875 1.5q-1.09375 0.546875 -2.46875 0.546875q-1.3125 0 -2.25 -0.515625q-0.921875 -0.515625 -1.609375 -1.421875l-0.125 1.234375q-0.09375 0.515625 -0.609375 0.515625l-1.5625 0zm6.109375 -11.96875q-1.171875 0 -2.0625 0.546875q-0.875 0.53125 -1.625 1.515625l0 6.609375q0.640625 0.890625 1.4375 1.265625q0.796875 0.359375 1.765625 0.359375q1.90625 0 2.9375 -1.359375q1.03125 -1.375 1.03125 -3.890625q0 -1.34375 -0.234375 -2.296875q-0.234375 -0.953125 -0.6875 -1.5625q-0.4375 -0.625 -1.09375 -0.90625q-0.640625 -0.28125 -1.46875 -0.28125zm18.041443 0.71875q-0.109375 0.15625 -0.21875 0.234375q-0.109375 0.078125 -0.3125 0.078125q-0.1875 0 -0.4375 -0.15625q-0.234375 -0.171875 -0.59375 -0.375q-0.359375 -0.203125 -0.890625 -0.375q-0.515625 -0.171875 -1.265625 -0.171875q-1.0 0 -1.78125 0.359375q-0.765625 0.359375 -1.28125 1.03125q-0.515625 0.671875 -0.78125 1.640625q-0.265625 0.953125 -0.265625 2.140625q0 1.234375 0.28125 2.203125q0.28125 0.96875 0.796875 1.625q0.515625 0.65625 1.25 1.0q0.734375 0.34375 1.65625 0.34375q0.875 0 1.4375 -0.203125q0.578125 -0.21875 0.953125 -0.46875q0.375 -0.265625 0.609375 -0.46875q0.25 -0.21875 0.5 -0.21875q0.3125 0 0.453125 0.234375l0.671875 0.875q-0.890625 1.09375 -2.234375 1.609375q-1.328125 0.5 -2.8125 0.5q-1.28125 0 -2.390625 -0.46875q-1.09375 -0.46875 -1.90625 -1.359375q-0.796875 -0.90625 -1.265625 -2.21875q-0.46875 -1.3125 -0.46875 -2.984375q0 -1.53125 0.421875 -2.828125q0.421875 -1.296875 1.234375 -2.234375q0.828125 -0.9375 2.03125 -1.453125q1.203125 -0.53125 2.75 -0.53125q1.4375 0 2.53125 0.46875q1.109375 0.46875 1.96875 1.3125l-0.640625 0.859375zm13.167175 11.25l-1.0625 0q-0.359375 0 -0.578125 -0.109375q-0.203125 -0.109375 -0.28125 -0.453125l-0.265625 -1.28125q-0.546875 0.5 -1.0625 0.890625q-0.5 0.375 -1.078125 0.640625q-0.5625 0.265625 -1.203125 0.390625q-0.640625 0.140625 -1.421875 0.140625q-0.796875 0 -1.5 -0.21875q-0.6875 -0.234375 -1.203125 -0.671875q-0.515625 -0.453125 -0.828125 -1.125q-0.296875 -0.6875 -0.296875 -1.625q0 -0.796875 0.453125 -1.546875q0.453125 -0.75 1.4375 -1.328125q1.0 -0.59375 2.59375 -0.953125q1.609375 -0.375 3.9375 -0.4375l0 -1.0625q0 -1.59375 -0.6875 -2.40625q-0.6875 -0.8125 -2.015625 -0.8125q-0.875 0 -1.484375 0.21875q-0.59375 0.21875 -1.03125 0.5q-0.4375 0.28125 -0.765625 0.5q-0.3125 0.21875 -0.625 0.21875q-0.234375 0 -0.421875 -0.125q-0.1875 -0.125 -0.296875 -0.3125l-0.421875 -0.78125q1.125 -1.09375 2.4375 -1.625q1.3125 -0.546875 2.90625 -0.546875q1.140625 0 2.03125 0.390625q0.890625 0.375 1.5 1.046875q0.609375 0.671875 0.921875 1.640625q0.3125 0.953125 0.3125 2.09375l0 8.75zm-6.234375 -1.46875q0.625 0 1.15625 -0.125q0.53125 -0.140625 0.984375 -0.375q0.46875 -0.234375 0.890625 -0.5625q0.4375 -0.34375 0.84375 -0.78125l0 -2.84375q-1.671875 0.046875 -2.828125 0.265625q-1.15625 0.203125 -1.890625 0.546875q-0.71875 0.328125 -1.0625 0.796875q-0.328125 0.453125 -0.328125 1.015625q0 0.546875 0.171875 0.9375q0.1875 0.390625 0.484375 0.640625q0.296875 0.25 0.703125 0.375q0.40625 0.109375 0.875 0.109375zm10.249023 1.46875l0 -11.625l-1.515625 -0.171875q-0.28125 -0.0625 -0.46875 -0.203125q-0.1875 -0.15625 -0.1875 -0.421875l0 -0.984375l2.171875 0l0 -1.328125q0 -1.171875 0.328125 -2.078125q0.328125 -0.90625 0.9375 -1.53125q0.625 -0.640625 1.484375 -0.953125q0.859375 -0.328125 1.9375 -0.328125q0.921875 0 1.703125 0.265625l-0.046875 1.203125q-0.015625 0.265625 -0.234375 0.328125q-0.21875 0.046875 -0.609375 0.046875l-0.421875 0q-0.609375 0 -1.125 0.171875q-0.5 0.15625 -0.875 0.53125q-0.359375 0.359375 -0.5625 0.953125q-0.1875 0.59375 -0.1875 1.46875l0 1.25l3.953125 0l0 1.75l-3.875 0l0 11.65625l-2.40625 0zm8.983093 0l0 -11.625l-1.515625 -0.171875q-0.28125 -0.0625 -0.46875 -0.203125q-0.1875 -0.15625 -0.1875 -0.421875l0 -0.984375l2.171875 0l0 -1.328125q0 -1.171875 0.328125 -2.078125q0.328125 -0.90625 0.9375 -1.53125q0.625 -0.640625 1.484375 -0.953125q0.859375 -0.328125 1.9375 -0.328125q0.921875 0 1.703125 0.265625l-0.046875 1.203125q-0.015625 0.265625 -0.234375 0.328125q-0.21875 0.046875 -0.609375 0.046875l-0.421875 0q-0.609375 0 -1.125 0.171875q-0.5 0.15625 -0.875 0.53125q-0.359375 0.359375 -0.5625 0.953125q-0.1875 0.59375 -0.1875 1.46875l0 1.25l3.953125 0l0 1.75l-3.875 0l0 11.65625l-2.40625 0zm13.967529 -13.890625q1.5 0 2.703125 0.5q1.21875 0.5 2.0625 1.421875q0.84375 0.90625 1.296875 2.21875q0.453125 1.296875 0.453125 2.90625q0 1.625 -0.453125 2.921875q-0.453125 1.296875 -1.296875 2.21875q-0.84375 0.90625 -2.0625 1.40625q-1.203125 0.484375 -2.703125 0.484375q-1.5 0 -2.703125 -0.484375q-1.203125 -0.5 -2.0625 -1.40625q-0.84375 -0.921875 -1.3125 -2.21875q-0.453125 -1.296875 -0.453125 -2.921875q0 -1.609375 0.453125 -2.90625q0.46875 -1.3125 1.3125 -2.21875q0.859375 -0.921875 2.0625 -1.421875q1.203125 -0.5 2.703125 -0.5zm0 12.203125q2.03125 0 3.03125 -1.359375q1.0 -1.359375 1.0 -3.78125q0 -2.453125 -1.0 -3.8125q-1.0 -1.359375 -3.03125 -1.359375q-1.015625 0 -1.78125 0.359375q-0.75 0.34375 -1.265625 1.015625q-0.5 0.65625 -0.75 1.625q-0.25 0.953125 -0.25 2.171875q0 1.21875 0.25 2.171875q0.25 0.953125 0.75 1.609375q0.515625 0.65625 1.265625 1.015625q0.765625 0.34375 1.78125 0.34375zm8.508301 0.203125q0 -0.359375 0.125 -0.65625q0.125 -0.3125 0.34375 -0.546875q0.234375 -0.234375 0.546875 -0.359375q0.3125 -0.140625 0.65625 -0.140625q0.359375 0 0.65625 0.140625q0.3125 0.125 0.546875 0.359375q0.234375 0.234375 0.359375 0.546875q0.125 0.296875 0.125 0.65625q0 0.359375 -0.125 0.671875q-0.125 0.296875 -0.359375 0.53125q-0.234375 0.234375 -0.546875 0.359375q-0.296875 0.125 -0.65625 0.125q-0.34375 0 -0.65625 -0.125q-0.3125 -0.125 -0.546875 -0.359375q-0.21875 -0.234375 -0.34375 -0.53125q-0.125 -0.3125 -0.125 -0.671875zm15.760498 -9.765625q-0.109375 0.15625 -0.21875 0.234375q-0.109375 0.078125 -0.3125 0.078125q-0.1875 0 -0.4375 -0.15625q-0.234375 -0.171875 -0.59375 -0.375q-0.359375 -0.203125 -0.890625 -0.375q-0.515625 -0.171875 -1.265625 -0.171875q-1.0 0 -1.78125 0.359375q-0.765625 0.359375 -1.28125 1.03125q-0.515625 0.671875 -0.78125 1.640625q-0.265625 0.953125 -0.265625 2.140625q0 1.234375 0.28125 2.203125q0.28125 0.96875 0.796875 1.625q0.515625 0.65625 1.25 1.0q0.734375 0.34375 1.65625 0.34375q0.875 0 1.4375 -0.203125q0.578125 -0.21875 0.953125 -0.46875q0.375 -0.265625 0.609375 -0.46875q0.25 -0.21875 0.5 -0.21875q0.3125 0 0.453125 0.234375l0.671875 0.875q-0.890625 1.09375 -2.234375 1.609375q-1.328125 0.5 -2.8125 0.5q-1.28125 0 -2.390625 -0.46875q-1.09375 -0.46875 -1.90625 -1.359375q-0.796875 -0.90625 -1.265625 -2.21875q-0.46875 -1.3125 -0.46875 -2.984375q0 -1.53125 0.421875 -2.828125q0.421875 -1.296875 1.234375 -2.234375q0.828125 -0.9375 2.03125 -1.453125q1.203125 -0.53125 2.75 -0.53125q1.4375 0 2.53125 0.46875q1.109375 0.46875 1.96875 1.3125l-0.640625 0.859375zm8.65155 -2.640625q1.5 0 2.703125 0.5q1.21875 0.5 2.0625 1.421875q0.84375 0.90625 1.296875 2.21875q0.453125 1.296875 0.453125 2.90625q0 1.625 -0.453125 2.921875q-0.453125 1.296875 -1.296875 2.21875q-0.84375 0.90625 -2.0625 1.40625q-1.203125 0.484375 -2.703125 0.484375q-1.5 0 -2.703125 -0.484375q-1.203125 -0.5 -2.0625 -1.40625q-0.84375 -0.921875 -1.3125 -2.21875q-0.453125 -1.296875 -0.453125 -2.921875q0 -1.609375 0.453125 -2.90625q0.46875 -1.3125 1.3125 -2.21875q0.859375 -0.921875 2.0625 -1.421875q1.203125 -0.5 2.703125 -0.5zm0 12.203125q2.03125 0 3.03125 -1.359375q1.0 -1.359375 1.0 -3.78125q0 -2.453125 -1.0 -3.8125q-1.0 -1.359375 -3.03125 -1.359375q-1.015625 0 -1.78125 0.359375q-0.75 0.34375 -1.265625 1.015625q-0.5 0.65625 -0.75 1.625q-0.25 0.953125 -0.25 2.171875q0 1.21875 0.25 2.171875q0.25 0.953125 0.75 1.609375q0.515625 0.65625 1.265625 1.015625q0.765625 0.34375 1.78125 0.34375zm9.289551 1.6875l0 -13.671875l1.4375 0q0.515625 0 0.640625 0.5l0.171875 1.40625q0.765625 -0.9375 1.703125 -1.53125q0.9375 -0.59375 2.171875 -0.59375q1.390625 0 2.25 0.765625q0.859375 0.765625 1.234375 2.078125q0.28125 -0.734375 0.75 -1.265625q0.46875 -0.546875 1.046875 -0.890625q0.578125 -0.359375 1.234375 -0.515625q0.65625 -0.171875 1.328125 -0.171875q1.09375 0 1.9375 0.34375q0.84375 0.34375 1.421875 1.015625q0.59375 0.65625 0.890625 1.625q0.3125 0.953125 0.3125 2.203125l0 8.703125l-2.390625 0l0 -8.703125q0 -1.609375 -0.703125 -2.4375q-0.703125 -0.828125 -2.046875 -0.828125q-0.59375 0 -1.125 0.203125q-0.53125 0.203125 -0.9375 0.609375q-0.40625 0.40625 -0.640625 1.03125q-0.234375 0.609375 -0.234375 1.421875l0 8.703125l-2.40625 0l0 -8.703125q0 -1.65625 -0.671875 -2.453125q-0.65625 -0.8125 -1.921875 -0.8125q-0.890625 0 -1.65625 0.484375q-0.75 0.46875 -1.390625 1.296875l0 10.1875l-2.40625 0z" fill-rule="nonzero"></path></g></svg>

